<?xml version="1.0" standalone="no"?>
<!DOCTYPE svg PUBLIC "-//W3C//DTD SVG 20010904//EN"
 "http://www.w3.org/TR/2001/REC-SVG-20010904/DTD/svg10.dtd">
<svg version="1.0" xmlns="http://www.w3.org/2000/svg"
 width="50.000000pt" height="50.000000pt" viewBox="0 0 50.000000 50.000000"
 preserveAspectRatio="xMidYMid meet">

<g transform="translate(0.000000,50.000000) scale(0.100000,-0.100000)"
fill="#000000" stroke="none">
<path d="M205 491 c-11 -5 -29 -19 -40 -31 -17 -19 -20 -36 -20 -131 0 -105 1
-109 28 -136 23 -23 36 -28 77 -28 41 0 54 5 77 28 27 27 28 31 28 137 0 105
-1 111 -26 136 -28 28 -89 40 -124 25z m106 -40 c38 -39 38 -61 -1 -61 -16 0
-30 -4 -30 -10 0 -5 14 -10 30 -10 17 0 30 -4 30 -10 0 -5 -13 -10 -30 -10
-16 0 -30 -4 -30 -10 0 -5 14 -10 30 -10 17 0 30 -4 30 -10 0 -5 -13 -10 -30
-10 -16 0 -30 -4 -30 -10 0 -5 14 -10 30 -10 26 0 30 -4 30 -26 0 -37 -50 -84
-90 -84 -40 0 -90 47 -90 84 0 22 4 26 30 26 17 0 30 5 30 10 0 6 -13 10 -30
10 -16 0 -30 5 -30 10 0 6 14 10 30 10 17 0 30 5 30 10 0 6 -13 10 -30 10 -16
0 -30 5 -30 10 0 6 14 10 30 10 17 0 30 5 30 10 0 6 -13 10 -30 10 -39 0 -39
22 -1 61 20 20 39 29 61 29 22 0 41 -9 61 -29z"/>
<path d="M90 287 c0 -65 36 -128 87 -152 37 -17 42 -24 43 -52 0 -32 -2 -33
-38 -33 -39 0 -62 -14 -62 -37 0 -10 30 -13 130 -13 100 0 130 3 130 13 0 23
-23 37 -62 37 -36 0 -38 1 -38 33 1 28 6 35 43 52 31 15 48 32 65 65 22 45 31
130 12 130 -5 0 -10 -21 -10 -47 0 -116 -115 -189 -208 -133 -46 28 -72 76
-72 133 0 26 -4 47 -10 47 -5 0 -10 -19 -10 -43z m170 -207 c0 -16 -4 -30 -10
-30 -5 0 -10 14 -10 30 0 17 5 30 10 30 6 0 10 -13 10 -30z m43 -57 c-29 -2
-77 -2 -105 0 -29 2 -6 3 52 3 58 0 81 -1 53 -3z"/>
</g>
</svg>
